<?xml version="1.0" encoding="utf-8"?>
<!-- Generator: Adobe Illustrator 24.3.0, SVG Export Plug-In . SVG Version: 6.00 Build 0)  -->
<svg version="1.1" id="Layer_1" xmlns="http://www.w3.org/2000/svg" xmlns:xlink="http://www.w3.org/1999/xlink" x="0px" y="0px"
	 width="337.9px" height="186.4px" viewBox="0 0 337.9 186.4" style="enable-background:new 0 0 337.9 186.4;" xml:space="preserve"
	>
<g id="t8p24X.tif_1_">
	<g>
		<path d="M47.4,14.5c3.8-0.1,7.7-0.2,11.5,0.4c0.2,0,0.4,0.1,0.6,0c4.2-0.4,7.2,2,9.8,4.8c3,3.2,4.5,7.3,5,11.7
			c0.5,3.7-0.3,7.2-1.6,10.7c-0.7,1.8-1.6,3.5-2.9,4.9c-0.8,0.9-1.7,1.9-2.5,2.9c-0.7,0.9-0.4,1.8,0.8,2.2c0.3,0.1,0.6,0.1,0.8,0.3
			c2.1,1.3,4.3,2.6,6.4,4c1.2,0.9,2.4,2,3.2,3.3c2,3,4.1,6.1,5.8,9.3c2.3,4.2,3.3,8.8,3.2,13.7c0,2.2,0.1,4.3,0,6.5
			c-0.1,3.7-1.3,7.1-2.9,10.4c-0.6,1.3-1.4,2.6-2.2,3.8c-1.1,1.7-2.2,3.3-3.5,4.8c-1,1.2-2.2,2.2-3.3,3.2c-2.1,1.8-4.4,3.1-6.9,4.2
			c-2.6,1.1-5.3,1.8-8.1,2c-4.5,0.4-9,0.7-13.4,0.8c-2,0.1-4.1-0.3-6.1-0.5c-1.2-0.2-2.2-0.8-2.7-2c-0.7-1.3-0.3-2.7,1.1-3.2
			c0.8-0.3,1.7-0.4,2.6-0.5c0.5-0.1,0.9-0.2,1.2-0.7c0.7-1,1-2.1,1-3.3c-0.1-2.9,0.1-5.8,0-8.7c-0.7-13.6-0.2-27.3-0.6-40.9
			c-0.1-3.4-0.2-6.9-0.3-10.3c-0.1-4.8-0.2-9.6-0.4-14.5c-0.1-2-0.3-4.1-0.4-6.1c-0.1-1.1-0.1-2.2,0-3.3c0-0.7-0.3-1.1-0.8-1.5
			c-1.4-1.2-2.8-2.4-4.2-3.7c-1.2-1.1-1.2-2.2-0.4-3.5c0.4-0.6,1-0.9,1.7-0.9C41.7,14.7,44.5,14.6,47.4,14.5z M56.5,108.6
			c0.1,2.4,1.9,3.8,4.2,3c2.1-0.7,4.1-1.5,6.1-2.3c0.5-0.2,1-0.7,1.3-1.2c1.3-2.2,2.5-4.4,3.6-6.7c2.4-5,3.8-10.2,3.4-15.8
			c-0.3-5.1-1.6-9.9-3.7-14.5c-1.1-2.3-2.3-4.5-3.5-6.7c-1.2-2.4-2.7-4.5-5-5.9c-1.5-0.9-2.9-1.5-4.7-1.2c-2.8,0.5-2.5-0.2-2.5,2.8
			C55.8,66.4,56.3,98.8,56.5,108.6z M64.4,36.3c-0.2-1.2-0.3-2.5-0.7-3.7c-0.4-1.5-1.1-3-1.5-4.5c-0.3-1.3-0.8-2.6-1.6-3.6
			c-0.8-1-1.7-2-2.6-2.9c-0.7-0.8-2.7-0.7-3.2,0.2c-0.5,0.9-0.9,2-0.9,3c-0.1,2.2,0.1,4.4,0.2,6.6c0.2,5.5,0.5,10.9,0.7,16.4
			c0,0.4,0.1,1.1,0.3,1.2c0.7,0.3,1.4,0.8,2.3,0.3c2.4-1.2,4-3.2,5-5.6C63.6,41.3,64.2,38.9,64.4,36.3z"/>
		<path d="M180.3,13.3c1.8,0.1,3.6,0.3,5.3,0.4c1.7,0.1,2.9,1,3.3,2.7c0.4,1.4,0.8,2.7,1.2,4.1c3.1,10.3,5.9,20.7,9.3,30.9
			c2,6.1,4.8,11.9,7.2,17.8c0.2,0.5,0.5,0.6,1,0.6c2.1-0.3,2.1-0.3,2.1-2.4c0-9.9,0-19.8,0-29.6c0-3.3,0-6.5,0.1-9.8
			c0-2.4-1.2-4.1-3-5.4c-1.6-1.2-2.2-3.7-1.4-5.7c0.7-1.8,2.4-2.7,4.5-2.6c3.5,0.2,7,0.4,10.4,0.5c1.9,0.1,3.2,1.3,3.1,3.2
			c0,0.5-0.1,1.1-0.1,1.6c-0.1,1-0.4,1.7-1.2,2.4c-1.5,1.3-2.3,2.9-2.5,5c-0.9,8-0.6,16.1-0.5,24.1c0.1,10.5,0.3,21.1,0.4,31.6
			c0.1,3.4,0.2,6.8,0.3,10.3c0,1.5,0.8,2.2,1.9,2.9c0.3,0.2,0.7,0.3,1,0.5c1.9,1.1,2,3.6,0.2,4.7c-0.8,0.5-1.7,0.7-2.6,0.8
			c-1.5,0.2-3.1,0.3-4.6,0.2c-2.2-0.1-4.4-0.5-6.6-0.7c-0.7-0.1-0.8-0.7-1-1.2c-1.1-4-2.2-8-3.4-12c-2.9-9.6-5.6-19.3-9.4-28.6
			c-0.8-2-1.7-4-2.5-6c-0.1-0.4-0.2-0.8-0.2-1.2c0-1.3-0.5-2.5-1.4-3.4c-0.2-0.2-0.6-0.3-0.8-0.3c-0.4,0.2-1,0.4-1.2,0.8
			c-0.2,0.3,0,0.8-0.1,1.2c-0.2,1.8-0.4,3.6-0.5,5.5c-0.1,4.2-0.2,8.4-0.2,12.6c0,1.8,0.2,3.5,0.3,5.3c0.2,2.7,0.6,5.4,0.8,8.2
			c0.1,1.5,0.3,3,0.3,4.5c0,2.1,0.5,4,2,5.6c0.7,0.7,1.1,1.7,1.5,2.6c0.7,1.9-0.4,3.6-2.5,3.7c-1.6,0.1-3.2,0-4.9,0
			c-2.8,0-5.6-0.1-8.4,0c-1.8,0.1-2.2-1.2-2.7-2.3c-0.5-0.9,0.1-1.9,0.7-2.6c0.3-0.4,1.1-0.3,1.7-0.5c0.6-0.2,1.2-0.4,1.8-0.6
			c0.6-0.3,0.7-0.8,0.8-1.4c0.1-1.9,0.3-3.8,0.5-5.7c0-0.4,0.1-0.9,0.1-1.3c-0.2-7.6-0.4-15.1-0.7-22.7c-0.2-8.7-0.4-17.4-0.7-26.1
			c-0.1-3-0.4-6-0.5-9.1c0-2.6-1.2-4.4-3.3-5.9c-2.4-1.7-2.4-5,0.2-6.7c0.5-0.3,1.2-0.5,1.8-0.5C178.2,13.2,179.2,13.3,180.3,13.3
			C180.3,13.4,180.3,13.3,180.3,13.3z"/>
		<path d="M282.1,177.6c-11.4,0-21.1-1.9-30.6-4.9c-12.3-3.8-24.2-8.8-35.5-15.2c-2.4-1.3-4.8-2.6-7.2-3.7
			c-8.1-3.9-15.6-8.8-23.6-13c-2.9-1.5-5.8-3.1-8.8-4.5c-0.7-0.3-1.5-0.4-2.3-0.5c-0.2,0-0.6,0.1-0.7-0.1c-0.9-0.8-1.6-0.2-2.5,0
			c-1.2,0.3-2.5,0.6-3.8,0.9c-4.3,1.2-8.4,2.8-12.5,4.7c-12,5.4-23.8,11.2-35.3,17.7c-7,4-14.6,7-22.1,9.9
			c-8.1,3.2-16.4,5.7-24.9,7.2c-10.6,1.9-21.1,2.2-31.6-0.6c-16.2-4.4-28.3-14.1-36.7-28.7c-2-3.5-3.5-7.3-4-11.4c-0.1-1,0-2,0.2-3
			c0.1-0.4,0.6-0.9,0.9-0.9c0.3,0,0.8,0.4,1,0.8c0.3,0.5,0.5,1.1,0.6,1.7c1.2,4.7,3.5,8.8,6.3,12.6c5.3,7.4,11.7,13.6,19.6,18
			c7,3.9,14.4,6.1,22.4,6.8c9.3,0.8,18.3-0.5,27.3-2.8c9.7-2.4,18.9-6.1,28-10.1c5.9-2.6,12-5,17.8-7.8c6.6-3.1,13-6.6,19.6-9.8
			c6.3-3.1,12.8-5.9,19.2-8.9c2.3-1.1,4.8-1.3,7.3-1.7c1.8-0.3,3.6-0.4,5.4-0.5c0.5,0,1,0.1,1.4,0.3c9.6,4.4,18.3,10.3,27.5,15.3
			c4.5,2.5,9,4.8,13.6,7c9.7,4.7,19.6,9.1,29.8,12.6c7.2,2.5,14.6,4.6,22.2,5.7c10,1.5,19.9,1.2,29.5-2c8.7-2.9,16.2-7.8,22.5-14.5
			c4.4-4.5,8.1-9.5,10.9-15.3c0.6-1.4,1.1-2.8,1.6-4.2c0.3-0.8,0.5-1.6,0.8-2.4c0.2-0.5,0.4-1.1,1.1-1.1c0.7,0.1,0.8,0.7,0.9,1.3
			c0.4,1.8,0.1,3.7-0.3,5.4c-1.2,4.7-3.3,9-6.1,13c-9.3,13.3-21.7,21.9-37.6,25.2C289.4,177.3,285.1,177.7,282.1,177.6z"/>
		<path d="M242.3,14.3c2.2,0,4.4,0,6.6,0c0.8,0,1.5,0.2,1.9,1c0.3,0.8,0.3,1.6-0.3,2.3c-0.2,0.3-0.4,0.6-0.7,0.9
			c-2.4,2.5-3.3,5.5-3.3,8.9c0,4.7-0.3,9.3-0.2,14c0.1,3.8,0.4,7.6,0.7,11.5c0.1,1.9,0.2,3.8,0.3,5.7c0,0.5,1.6,2,2.1,1.8
			c0.2-0.1,0.5-0.4,0.6-0.7c2.2-4.6,4.3-9.2,6-14c2.6-7.4,5.7-14.7,8.5-22c0.3-0.7,0.5-1.5,0.6-2.2c0.1-1.1-0.3-1.6-1.4-1.9
			c-0.2-0.1-0.5-0.2-0.5-0.2c0.1-1-0.5-2,0-3.1c0.8-1.6,2.1-2.3,3.7-2.3c3.7-0.1,7.5,0,11.2,0c1,0,1.6,0.6,2,1.4
			c0.3,0.8,0.1,1.5-0.5,2.1c-0.7,0.6-1.2,1.3-1.8,1.9c-0.2,0.2-0.4,0.4-0.7,0.4c-1,0.2-1.7,0.8-2.2,1.6c-0.8,1.2-1.7,2.5-2.4,3.8
			c-1.5,2.9-2.9,5.8-4.2,8.8c-1,2.1-1.9,4.3-2.5,6.6c-0.5,1.8-1,3.5-0.5,5.5c1.9,7.5,3.5,15,5.5,22.4c2.6,9.6,5.9,18.9,9.5,28.1
			c0.7,1.9,1.4,3.7,2,5.6c0.2,0.7,0.5,1,1.2,1.2c1.2,0.3,2.3,0.6,3.5,0.9c0.5,0.1,0.8,0.3,0.9,0.8c0,0.1,0.1,0.2,0.1,0.3
			c0.1,0.8,0.8,1.6,0.1,2.3c-0.8,0.8-1.6,1.6-2.9,1.5c-2.9-0.2-5.9-0.3-8.9-0.5c-0.2,0-0.5,0-0.7-0.2c-1.1-1.3-2.7-2.1-3.2-4
			c-1.2-4.4-2.6-8.8-3.8-13.2c-2.6-9.6-5.5-19.1-8.8-28.5c-0.6-1.7-1.1-1.7-2.6-0.8c-2,1.2-2.9,3-3.7,5c-2.1,5-4.3,9.9-5.6,15.2
			c-0.1,0.5-0.1,1-0.2,1.6c-0.1,0.9-0.2,1.7-0.4,2.6c0,0.3-0.1,0.6-0.1,1c0.2,2.8,0.4,5.7,0.6,8.5c0.1,1.4,0.7,2.5,2,3.1
			c0.7,0.3,1.2,0.9,1.1,1.7c-0.1,0.9-0.1,1.9-0.3,2.8c-0.4,1.3-1.3,2.2-2.8,2.2c-3.4,0.2-6.9,0.3-10.3,0.5c-1.7,0.1-2.7-0.5-3.3-2
			c-0.1-0.3-0.2-0.5-0.4-0.8c-0.4-0.8-0.4-1.5,0.4-2.3c1.9-1.8,2.9-4.1,3.1-6.7c0.3-3.2,0.8-6.5,0.8-9.7c0-7.8-0.1-15.6-0.5-23.4
			c-0.5-9.4-0.3-18.8-0.5-28.2c-0.1-3.8-0.5-7.7-0.9-11.5c-0.1-0.9-1-1.8-1.6-2.5c-1.2-1.4-1.4-2.7-0.4-4.3c0.3-0.5,0.8-0.7,1.4-0.7
			C237.7,14.2,240,14.2,242.3,14.3C242.3,14.2,242.3,14.2,242.3,14.3z"/>
		<path d="M126.3,28.8c0.1,3.6,0,7.3-1.2,10.8c-0.7,2-1.6,3.8-2.3,5.8c-0.1,0.4-0.3,0.9-0.2,1.2c2.4,9,4.8,18,7.2,27.1
			c1.2,4.6,2.4,9.2,3.6,13.9c0.2,0.8,0.3,1.7,0.4,2.5c0.2,1.6,0.8,2.9,2.2,3.7c1.5,0.8,2.4,2.1,2.9,3.7c0.2,0.7,0.2,1.2-0.2,1.7
			c-0.7,1-1.5,1.7-2.7,1.8c-2.6,0.1-5.3,0.3-7.9,0.2c-1.3-0.1-2.6-0.5-3.8-1.2c-1.1-0.6-1.3-2-1.5-3.2c-1-10.8-2.9-21.4-5.4-32
			c-0.8-3.5-1.9-6.8-2.9-10.2c-0.1-0.4-0.2-0.7-0.4-1c-0.8-1.7-1.7-1.9-3.4-1.4c-1.9,0.6-2.6,1.9-2.5,3.7c0,3.4,0.2,6.9,0.2,10.3
			c0.1,8.6,0.3,17.2,0.4,25.9c0,1.1-0.2,2.1-0.3,3.2c0,0.9-0.1,1.8,0.1,2.7c0.3,1.9,1.1,2.6,3,2.9c1.2,0.2,1.9,0.9,2.4,1.8
			c0.3,0.6,0.3,1.2-0.1,1.9c-1,1.6-2.6,2.3-4.3,2c-2.5-0.4-4.9,0.1-7.4,0.3c-1.8,0.1-3.6,0.1-5.3,0.1c-1.1,0-1.9-0.6-2.7-1.3
			c-1.1-1.2-1.1-1.5,0-2.7c0.3-0.4,0.7-0.8,1-1.2c2.4-2.2,3.1-5.1,3.1-8.2c-0.2-11.7-0.4-23.4-0.7-35c-0.2-5.6-0.6-11.3-0.9-16.9
			c-0.2-3.6-0.3-7.2-0.4-10.8c-0.1-2.1-0.1-4.2-0.2-6.2c0-0.7-0.3-1.3-0.4-2c-0.3-1.1-0.6-2.1-0.9-3.1c-0.1-0.3-0.3-0.6-0.5-0.8
			c-0.5-0.5-1.1-1-1.6-1.5c-1-1.1-1.2-2.4-0.5-3.5c0.6-1,1.8-1.4,3.2-1.1c0.9,0.2,1.8,0.4,2.7,0.4c4.7,0,9.3-0.2,14-0.1
			c3.7,0.1,7,1.2,9.5,4.2c1.5,1.7,2.8,3.6,3.9,5.6c0.4,0.9,0.7,1.8,0.7,2.8C126.3,26.5,126.3,27.7,126.3,28.8z M117.7,31.8
			c-0.1-1.4-0.3-2.8-0.3-4.1c-0.1-2.2-0.7-4-2.3-5.6c-1-1.1-2-2.3-3-3.3c-0.3-0.3-0.8-0.4-1.2-0.5c-0.9-0.2-1.8-0.1-2.7-0.3
			c-0.8-0.2-1.2,0.1-1.3,0.8c-0.2,1.1-0.4,2.2-0.4,3.3c0.2,3.4,0.5,6.7,0.7,10.1c0.1,2.1,0.2,4.2,0.3,6.4c0.1,1.6-0.6,3.3,0.1,5
			c0.1,0.1,0,0.3,0,0.5c-0.1,1.1,0.2,1.6,1.3,1.7c0.7,0,1.5,0,2.1-0.3c1-0.6,2.1-1.3,2.8-2.2C116.6,39.9,117.9,36.1,117.7,31.8z"/>
		<path d="M299.3,130.7c-7.5,0.2-14.4-1.2-21.2-3.1c-7.8-2.2-15.4-5.1-22.7-8.5c-1.4-0.6-2.6-1.6-3.8-2.6c-1.2-1-1.1-3.5,0.1-4.5
			c0.4-0.3,1.1-0.5,1.7-0.5c0.8,0.1,1.6,0.3,2.3,0.6c3.2,1.2,6.4,2.3,9.6,3.6c5.8,2.4,11.8,4.1,18,5.4c3.8,0.8,7.6,1.7,11.5,1.9
			c5.5,0.2,10.8-0.4,15.7-3.3c0.4-0.2,0.9-0.5,1.2-0.8c4.9-4,8.3-9,9.6-15.3c1.6-7.8-0.3-14.9-4-21.6c-1.4-2.6-3.2-5-5.2-7.2
			c-3.9-4.1-7.7-8.2-11.9-12c-5.7-5.2-10.2-11.3-13.5-18.4c-0.9-1.9-1.2-4-1.3-6c-0.1-3.7,0.2-7.4,1.7-10.9c1.9-4.5,5.1-7.9,8.7-11
			c2.1-0.7,4.1-1.5,6.2-2c1.9-0.5,3.8-0.4,5.7,0.2c1.9,0.6,3.7,1.5,5.5,2.3c0.3,0.1,0.6,0.5,0.8,0.7c2.2,2.7,4.1,5.5,5.2,8.8
			c0.7,2,1.7,3.5,3.9,4c0.3,0.1,0.6,0.4,0.6,0.6c0,0.9,0,1.9-0.1,2.8c0,0.2-0.5,0.4-0.8,0.5c-3,0.2-5.9,0.3-8.9,0.5
			c-2.1,0.1-3.3-0.6-3.9-2.7c-0.8-2.4-1.5-4.9-2-7.4c-0.5-2.4-2.6-4.4-5.4-3.8c-3,0.6-5.2,2.4-6.5,5.1c-1.4,3-1.4,6.1-0.6,9.2
			c1.3,4.9,3.7,9.3,6.6,13.4c3.9,5.6,8.3,10.6,13.3,15.3c5.5,5.2,10,11.2,14.1,17.6c1,1.7,1.6,3.6,2.3,5.5c4,10.4,2.3,20.2-3.1,29.6
			c-3,3.8-6.3,7.3-10.5,9.6C311.9,129.3,305.6,130.9,299.3,130.7z"/>
		<path d="M45.1,127c8.1-0.1,15.9-1.8,23.6-4.3c6.1-2,12.1-4.1,18.2-6.1c2.1-0.7,4.2-1.3,6.3-1.9c0.3-0.1,0.6-0.1,0.8-0.2
			c0.7,0,1.3,0.1,1.7,0.8c0.4,0.6,0.2,1.3-0.3,1.7c-0.7,0.8-1.5,1.7-2.4,2.2c-8.3,4.7-16.5,9.4-25.6,12.2c-5.2,1.6-10.5,2.9-16,3.6
			c-4.8,0.6-9.7,0.8-14.5,0.1c-3.2-0.4-6.4-0.7-9.5-1.5c-7-1.8-12.5-5.8-16.8-11.6c-4.7-6.2-7.7-13.2-9-20.9
			c-0.9-5.3-0.7-10.7,1-15.9c0.6-2,1.2-4,2-5.9c2.4-6.2,6.3-11.3,11.2-15.7c4.9-4.4,10.4-7.8,16.6-10.3c2.1-0.8,4.2-0.5,6.4-0.4
			c0.2,0,0.5,0.4,0.5,0.6c0.1,1.2,0.1,2.4,0.2,3.5c0,0.5-0.3,0.7-0.7,0.9c-1.7,0.8-3.5,1.6-5.2,2.3c-7,2.9-12.3,7.7-16.5,13.9
			c-4,6-6.7,12.4-7.6,19.6c-1,7.9,0.3,15.4,4.7,22.1c0.6,0.9,1.5,1.7,2.3,2.4c3.3,2.7,7.1,4.4,11,5.8c2.7,1,5.4,1.4,8.2,1.7
			C38.7,126.4,41.9,126.7,45.1,127z"/>
		<path d="M155.3,97.1c-1,0-2-0.1-3,0c-1.2,0.1-2.3-0.4-3.3-0.9c-1.3-0.7-1.6-2.2-0.6-3.5c0.3-0.5,0.8-0.8,1.1-1.3
			c0.3-0.4,0.5-0.8,0.6-1.2c0.4-2.5,1.1-5,1.1-7.5c0-6.2-0.4-12.4-0.6-18.6c-0.1-2.3-0.2-4.6-0.3-7c-0.3-5.9-0.6-11.8-0.9-17.7
			c-0.2-3.5-0.4-6.9-0.5-10.4c-0.1-1.6-0.1-3.2-0.3-4.8c-0.1-0.7-0.5-1.4-0.9-2c-0.8-1.1-1.8-2-2.6-3c-1.2-1.4-0.4-4.1,1.5-4.4
			c1.3-0.2,2.7-0.2,4.1-0.3c3.3-0.1,6.6-0.1,9.8-0.4c1.4-0.1,2.4,0.4,3.1,1.4c0.8,1.2,0.9,2.4,0.3,3.7c-0.1,0.3-0.5,0.5-0.8,0.7
			c-1.3,0.6-2.2,1.6-2.8,2.9c-0.7,1.7-1.2,3.5-1.4,5.4c-0.4,4.7-0.1,9.4,0.2,14.1c0.2,3.3,0,6.7,0,10c0.1,6.7,0.3,13.4,0.5,20.1
			c0.1,3.5,0.3,7,0.2,10.5c0,1.8-0.2,3.7,0.1,5.5c0.2,1.3,0.8,2.4,2.1,3c1.8,0.9,2,3.1,0.5,4.4c-0.9,0.8-1.9,1-3.1,1
			C157.9,97.1,156.6,97.1,155.3,97.1C155.3,97.1,155.3,97.1,155.3,97.1z"/>
		<path d="M190,162.5c-2-0.1-3.6-0.6-5-1.5c-1-0.7-2.1-1.5-2.9-2.4c-1.6-1.7-3.5-2.9-5.5-4c-1-0.5-2.1-1-3.2-1.5
			c-1.2-0.6-2.5-0.7-3.8-0.2c-1.8,0.8-3.6,1.5-5.3,2.5c-1.5,0.9-2.9,2.1-4.2,3.3c-1.7,1.5-3.5,2.9-5.8,3.5c-1.8,0.4-3.5,0.2-5.2-0.6
			c-2.8-1.4-3.3-5.9-1-8c1-0.9,2.2-0.6,2.5,0.6c0.2,0.7-0.1,1.2-0.8,1.4c-0.9,0.2-1.1,0.5-0.8,1.4c0.7,2.4,2.5,2.9,4.2,1.1
			c0.7-0.7,1.3-1.6,1.9-2.4c1-1.4,1.9-2.9,3-4.3c1.3-1.7,2.9-3.1,4.9-3.9c1.9-0.8,3.7-0.7,5.4,0.4c0.4,0.3,0.8,0.5,1.2,0.8
			c1.2,0.8,2.1,0.7,3.2-0.1c0.2-0.1,0.4-0.3,0.6-0.4c1.7-1.2,3.5-1.5,5.5-0.7c2.2,0.8,3.9,2.4,5.3,4.2c1.1,1.4,1.9,2.9,3,4.3
			c0.6,0.9,1.3,1.8,2.1,2.5c0.7,0.7,1.7,0.9,2.7,0.5c1-0.4,1.1-1.5,1.4-2.3c0.1-0.3-0.4-1-0.7-1c-0.6-0.1-1.1-0.3-1-0.9
			c0-0.4,0.3-1.1,0.6-1.2c0.4-0.2,1.1-0.2,1.5,0.1c0.5,0.3,0.9,0.9,1.1,1.4c1.2,2.7,0.8,6.3-3.5,7.3
			C190.8,162.4,190.2,162.4,190,162.5z"/>
		<path d="M188.5,111.8c0.2-0.7,0.4-1.5,0.7-2.2c0.2-0.6,0.8-0.8,1.4-0.7c0.6,0.1,0.9,0.5,1,1.1c0.6,3.2,1.1,6.3,1.7,9.5
			c0.1,0.6,0.1,1.3,0.3,1.9c0,0.2,0.2,0.4,0.3,0.5c0.2-0.2,0.4-0.3,0.6-0.5c0.1-0.1,0.1-0.3,0.1-0.5c0.9-3.3,1.8-6.5,2.7-9.8
			c0.3-1,1.1-1.2,1.9-1.4c0.8-0.2,1.5,0.2,1.8,0.9c0.3,0.9,0.5,1.8,0.7,2.7c0.6,4,1.1,7.9,1.7,11.9c0.1,0.5-0.1,1.3,0.7,1.3
			c0.8,0,0.7-0.8,0.8-1.3c0.9-4.3,1.8-8.7,2.7-13.1c0.1-0.4,0.4-0.8,0.6-1.2c0.5,0.3,1.2,0.6,1.6,1c0.3,0.4,0.3,1.1,0.2,1.6
			c-1,5.2-2,10.3-3,15.5c-0.3,1.5-0.8,2.9-1.2,4.4c-0.2,1-1,1-1.6,1.2c-0.6,0.2-1.2-0.1-1.6-0.7c-0.1-0.1-0.2-0.3-0.2-0.4
			c-0.6-2.3-1.5-4.6-1.8-7.1c-0.3-2.8-0.7-5.5-1.1-8.2c-0.1-0.4-0.3-0.7-0.5-1c-0.3,0.2-0.6,0.4-0.8,0.7c-0.2,0.4-0.4,0.8-0.5,1.2
			c-0.6,2.5-1.1,4.9-1.8,7.4c-0.3,1.3-0.8,2.5-1.3,3.8c-0.1,0.2-0.3,0.4-0.5,0.4c-0.8,0-1.5-0.6-1.7-1.5c-0.4-1.5-0.9-3-1.2-4.5
			c-0.5-2.3-1-4.6-1.4-6.9c-0.3-1.6-0.6-3.3-1-4.9c-0.1-0.4-0.1-0.8-0.1-1.2C188.6,111.8,188.5,111.8,188.5,111.8z"/>
		<path d="M241.2,127.3c0-1.4,0.3-1.9,1.7-2c2.8-0.3,5.7,0,8.3,1.1c0.8,0.3,1.5,1.1,1.9,1.9c1.7,3,1.8,6.3,1.1,9.6
			c-0.1,0.3-0.2,0.6-0.4,0.8c-0.8,0.9-0.7,1.9-0.4,3c1.1,4,2.2,8,3.3,12c0.3,1,0.3,2.1-0.1,3.1c-0.2,0.4-0.4,0.5-0.7,0.4
			c-1.5-0.7-2.8-1.4-3.3-3.3c-0.7-3.4-1.7-6.7-2.6-10.1c-0.2-0.6-0.4-1.2-0.6-1.7c-0.2-0.6-0.6-0.8-1.2-0.5
			c-0.6,0.3-1.3,0.5-1.9,0.9c-0.3,0.2-0.6,0.6-0.7,0.9c-0.2,1-0.4,2-0.5,3c-0.1,1.2,0,2.4,0,3.6c0,1-1.1,1.9-2.2,1.9
			c-0.7,0-1.3-0.6-1.4-1.7c-0.1-1.6-0.2-3.3-0.2-4.9C241.4,142.3,241.3,130.4,241.2,127.3z M244.8,134.2
			C244.8,134.2,244.8,134.2,244.8,134.2c0.1,1,0,2,0.1,3.1c0.1,1.2,1.1,1.9,2.2,1.5c0.9-0.3,1.7-0.7,2.5-1.2c2-1.3,2.8-3.2,2.3-5.6
			c-0.6-2.5-1.3-3.2-4.2-3.6c-0.2,0-0.3-0.1-0.5-0.1c-1.1-0.1-2,0.5-2.1,1.6C244.9,131.3,244.9,132.7,244.8,134.2z"/>
		<path d="M265.6,140.4c0-1.9,0.1-3.8,0.2-5.7c0.1-1.2,0.5-1.8,1.2-1.9c0.8-0.1,1.6,0.4,2,1.4c0.2,0.6,0.4,1.2,0.4,1.7
			c0.1,1.5,0.1,3,0.2,4.5c0.1,1.3,0.7,1.7,1.8,0.9c0.3-0.2,0.6-0.6,0.8-0.9c1.6-1.8,3.2-3.6,4.8-5.3c0.3-0.3,0.8-0.6,1.2-0.6
			c1.1,0.1,1.5,0.9,1.1,1.9c-0.1,0.3-0.3,0.5-0.5,0.7c-1,1.4-2,2.8-3.1,4.2c-0.7,0.8-0.7,1.7-0.4,2.6c1.9,5.3,3.7,10.6,5.5,15.9
			c0.2,0.5,0.3,0.9,0.3,1.4c0.1,0.7,0,1.4-0.7,1.8c-0.7,0.3-1.5,0-1.9-0.8c-0.6-1.1-1.2-2.2-1.6-3.3c-1-2.8-2-5.6-3-8.4
			c-0.4-1.1-0.9-2.2-1.4-3.2c-0.4-0.8-0.6-0.8-1.2,0c-0.4,0.6-0.9,1.1-1.3,1.8c-0.3,0.5-0.5,1-0.5,1.6c0,2.1,0.2,4.2,0.3,6.4
			c0.1,1.4-0.2,2.1-1.5,2.6c-0.9,0.4-1.6,0.2-1.8-0.8c-0.4-1.4-0.8-2.9-0.9-4.4C265.6,152.6,265.6,143.2,265.6,140.4z"/>
		<path d="M130.9,121.5c0.1,3.3-0.2,6.5-0.9,9.7c-0.2,0.8-0.1,1.6-0.1,2.4c-0.1,1.4-0.2,2.8-0.2,4.2c0,0.8-0.5,1.2-1.1,1.5
			c-0.6,0.3-1.1,0-1.6-0.4c-1.4-1.1-2.3-2.5-3.1-4c-1.2-2.2-2.3-4.4-3.5-6.6c-0.3-0.5-0.5-1-0.9-1.4c-0.3-0.2-0.8-0.3-1.2-0.3
			c-0.2,0-0.3,0.6-0.3,0.9c-0.1,3.4-0.2,6.8-0.3,10.2c-0.1,1.7-0.3,3.4-0.5,5.1c0,0.3-0.5,0.6-0.8,0.7c-0.5,0.1-1,0.2-1.5,0.1
			c-0.2,0-0.5-0.4-0.5-0.6c0-1.5,0-2.9,0.1-4.4c0.3-4.9,0.7-9.8,0.2-14.8c-0.1-0.8,0.1-1.7,0.2-2.5c0.1-1,0.9-1.5,1.7-2
			c0.7-0.4,1.4-0.1,1.9,0.7c2.4,4,4.8,7.9,7.2,11.9c0.2,0.4,0.4,0.7,0.9,0.5c0.5-0.1,0.6-0.5,0.5-0.9c0-0.7-0.2-1.4-0.2-2.1
			c0.1-4.3,0.2-8.6,0.4-13c0-0.5,0-1.1,0.3-1.4c0.5-0.4,1.1-0.8,1.8-0.8c0.8-0.1,1.2,0.6,1.3,1.4c0.1,1.5,0.2,2.9,0.2,4.4
			C130.9,120.4,130.9,120.9,130.9,121.5z"/>
		<path d="M231.6,138.5c-0.2,2.1-1.4,3.8-2.6,5.4c-0.5,0.6-1.3,1-2.1,1.1c-1.4,0.3-2.8,0.4-4.2,0.3c-1.6-0.1-2.8-0.9-3.5-2.5
			c-0.8-1.9-1.4-3.9-1.1-5.9c0.3-2.2-0.2-4.3-0.4-6.5c-0.2-3-0.2-6,0.5-9c0.5-2.4,1-3.8,4.4-4.1c1-0.1,2-0.3,3-0.3
			c2.6,0.2,4.4,1.6,5.3,4c0.4,1.1,0.6,2.4,0.8,3.6C231.9,126.5,231.8,135.7,231.6,138.5z M228.9,126.3c-0.2-1.4-0.4-2.9-1-4.2
			c-0.9-2.1-3.2-2.6-5.1-1.4c-1.4,0.9-1.8,2.4-1.8,3.8c0,4.2,0.1,8.5,0.3,12.7c0,1,0.3,2,1.2,2.7c1,0.7,2.1,1.2,3.4,1.3
			c0.9,0.1,1.6-0.1,1.9-1.1c0.3-0.8,0.7-1.6,0.8-2.4C228.9,135.1,229.1,127.5,228.9,126.3z"/>
		<path d="M141.1,115.4c0.2-2.1,1.3-3.8,2.6-5.4c0.2-0.2,0.4-0.4,0.7-0.5c2-0.7,4.1-1.2,6.3-1c1.3,0.2,2.4,0.8,3.1,1.9
			c1,1.5,2.2,2.9,2.2,4.8c0,0.8-0.1,1.6-0.1,2.4c0,1.8,0,3.7,0,5.5c-0.1,4-2.6,7.7-6.3,9.1c-0.5,0.2-1.2,0.3-1.6,0.2
			c-1.6-0.5-3.2-1.1-4.7-1.9c-1.7-1-2.3-2.8-2.4-4.7C140.7,124.2,141,117.2,141.1,115.4z M143.9,121.2c0,1.7,0,3.1,0,4.4
			c0,1.3,0.5,2.4,1.8,2.8c1.4,0.4,2.8,0.4,4-0.7c0.5-0.4,1.1-1,1.7-1.2c0.7-0.2,0.9-0.7,1-1.3c0.5-3,0.8-6,0.5-9
			c-0.1-1.1-0.6-2.1-1-3.1c-0.2-0.6-0.7-0.9-1.3-1c-1.1,0-2.2,0-3.3,0c-0.1,0-0.3,0.1-0.4,0.2c-1.6,0.7-2.2,2.1-2.4,3.7
			C144.1,117.8,144,119.7,143.9,121.2z"/>
		<path d="M61.5,145c-0.3,0.9-0.4,1.8-0.8,2.6c-1.3,2.8-3.5,4.7-6.4,5.6c-1.1,0.4-2.2,0.7-3.4,1c-0.7,0.2-1,0.5-1,1.3
			c0.1,1.6,0,3.3,0,4.9c0,0.5,0,1-0.2,1.4c-0.4,1.3-2.4,2.2-3.6,1.5c-0.2-0.1-0.4-0.5-0.4-0.8c0.1-4.9,0.1-9.8,0.2-14.7
			c0.1-2.4,0.3-4.8,0.4-7.2c0-0.5,0.3-0.7,0.7-0.8c3.6-0.3,7.1-0.6,10.6,0.1C60,140.6,61.3,142.4,61.5,145z M49.8,147.2
			C49.8,147.2,49.9,147.2,49.8,147.2c0.1,0.9,0.1,1.9,0.1,2.8c0,0.4,0.1,0.7,0.6,0.7c2.7,0.1,6-2,7.2-4.5c0.7-1.5,0.2-2.5-1.3-3
			c-2.1-0.7-4.1-0.2-6,0.6c-0.2,0.1-0.5,0.5-0.5,0.8C49.8,145.5,49.8,146.3,49.8,147.2z"/>
		<path d="M102.8,149.5c-0.1,0.7-0.2,1.5-0.4,2.2c-0.2,0.4-0.7,0.7-1.2,0.9c-0.5,0.1-0.7-0.4-0.8-0.9c-0.3-1.3-0.6-2.7-0.9-4.1
			c-0.4-1.7-1.3-2.2-2.9-1.8c-0.4,0.1-0.7,0.2-1.1,0.3c-1.5,0.2-2.3,1.2-2.7,2.5c-0.5,1.6-0.8,3.2-1.2,4.9c-0.1,0.2,0,0.5-0.1,0.7
			c-0.2,1.3-0.3,1.4-1.5,1.2c-1-0.2-1.3-0.7-1.2-1.8c0.6-4.7,1.9-9.3,3.1-13.9c0.4-1.6,0.6-3.4,1-5c0.5-2.1,0.9-4.2,1.5-6.3
			c0.4-1.3,1.3-1.8,2.4-1.6c0.9,0.1,1.8,1.1,2.1,2.3c0.5,2.6,0.9,5.1,1.4,7.7c0.8,3.8,1.6,7.7,2.3,11.5
			C102.7,148.6,102.7,149,102.8,149.5z M98.2,141.6c-0.4-2.1-0.8-4.2-1.2-6.4c-0.1-0.4-0.1-0.9-0.8-0.9c-0.6,0-0.6,0.5-0.7,0.8
			c-0.4,1.7-0.8,3.4-1.2,5.1c-0.2,0.9-0.2,1.7,0.1,2.5c0.2,0.7,0.6,0.8,1.2,0.7c0.6-0.2,1.1-0.4,1.7-0.6
			C98.1,142.7,98.3,142.2,98.2,141.6z"/>
		<path d="M302.2,156.4c0,2.7-1,4.4-3.2,5.5c-2,1-3.9,1.5-5.9,0.5c-2-0.9-3.5-2.5-4.3-4.6c-0.1-0.3-0.2-0.7-0.2-1.1
			c0.1-0.9,0.8-1.5,1.7-1.2c0.8,0.3,1.5,0.7,2.2,1.3c0.9,0.7,1.8,1.4,2.9,1.7c1.4,0.4,2.7-0.2,3.2-1.5c0.5-1.4-0.1-3.4-1.2-4.5
			c-1.8-1.9-3.6-3.7-5.3-5.7c-1.4-1.7-1.6-3.7-1.1-6c0.5-1.9,1.6-2.6,3.2-3.2c2.4-0.9,4.4-0.4,6.4,1c1.5,1.1,2.2,2.6,2.2,4.4
			c0,0.7-1.3,1.9-2,1.7c-0.2-0.1-0.4-0.3-0.6-0.6c-0.4-0.6-0.7-1.3-1.1-1.9c-0.4-0.5-0.9-1-1.5-1.4c-1-0.6-2.7-0.1-3.3,0.8
			c-0.4,0.6,0,2.4,0.7,3.1c0.1,0.1,0.1,0.1,0.2,0.2c1.8,2.3,3.7,4.6,5.5,6.8C302,153.2,302,155,302.2,156.4z"/>
		<path d="M293.8,2.4c-0.4,1-0.6,2.1-1.1,3c-1.2,2.2-2.5,4.4-3.7,6.6c-0.6,1.1-1.1,2.4-1.5,3.6c-0.3,0.8-3,1-3.7,0.8
			c-0.1,0-0.1-0.4,0-0.6c0.3-2.5,0.6-4.9,0.9-7.4c0.2-1.3,0.3-2.6,0.4-3.9c0.1-0.6,0.2-1.1,0.2-1.7c0.1-0.7,0.4-1.1,1.1-1.3
			c1.8-0.5,3.5-1,5.3-1.5c1.2-0.3,1.5,0,1.8,1.1c0.1,0.4,0.1,0.7,0.2,1.1C293.6,2.4,293.7,2.4,293.8,2.4z"/>
		<path d="M194.7,175.8c-0.3,2.2-0.3,4.4-1.7,6.3c-1.8,2.5-4.9,2.7-7.1,0.4c-1.9-2-2.1-4.3-1.8-6.8c0.1-0.8,0.3-1.7,0.6-2.5
			c0.6-2,2.2-3.1,4.3-3.1c2.1,0,4,0.4,5,2.5C194.4,173.6,194.5,174.7,194.7,175.8z M186.6,177.3c-0.1,1.2,0.2,2.2,1,3
			c1.3,1.4,3,1.2,3.5-0.6c0.4-1.5,0.5-3.2,0.6-4.8c0-1-0.5-1.4-1.6-1.3c-0.4,0-0.8,0-1.2,0c-1.1,0-1.6,0.3-1.9,1.4
			C186.7,175.8,186.7,176.6,186.6,177.3z"/>
		<path d="M221.2,179.5c-0.3,3.8-2.8,6.2-6.3,6.1c-1,0-1.5-0.4-1.7-1.3c-0.3-1.2,0.2-1.8,1.4-1.7c1.3,0.1,2.5-0.2,3.3-1.4
			c0.2-0.3,0.4-0.7,0.3-1c-0.1-0.2-0.6-0.3-0.9-0.3c-1.1,0-2.1-0.4-3.1-1c-1.8-1-2.4-4.5-1.6-6.2c0.6-1.2,1.5-1.8,2.8-1.8
			c0.3,0,0.6,0,0.8,0c3.8,0.6,3.9,1.1,4.5,4.3C221.1,176.7,221.1,178.1,221.2,179.5z M218.6,175.3c0-1.2-0.7-1.7-2.3-1.7
			c-0.6,0-1.2,0.7-1.2,1.3c0,0.8,1.2,2,2,2C218.1,177,218.6,176.4,218.6,175.3z"/>
		<path d="M173.9,184.1c-0.9,0-1.9,0.1-2.8,0c-0.5-0.1-1.1-0.3-1.5-0.6c-0.8-0.6-0.7-1-0.1-1.9c1-1.4,1.9-2.8,2.7-4.3
			c0.7-1.3,0.7-2.8,0.4-4.2c-0.1-0.3-0.5-0.8-0.6-0.7c-0.4,0.1-0.8,0.3-1,0.6c-0.5,1.2-1,1.6-1.8,1.4c-0.9-0.2-1.4-1.1-1.4-2.2
			c0-0.3,0.1-0.6,0.2-0.8c0.7-1.6,2.2-2.1,3.7-2.3c1.5-0.2,2.7,0.4,3.4,1.8c1.2,2.8,0.9,5.5-0.7,8c-0.2,0.4-0.5,0.7-0.8,1.1
			c-0.5,0.8-0.3,1.3,0.6,1.4c0.8,0.1,1.7,0,2.5,0c1,0,1.4,0.3,1.4,1.1c0,0.8-0.5,1.4-1.3,1.4C175.8,184.2,174.9,184.1,173.9,184.1
			C173.9,184.1,173.9,184.1,173.9,184.1z"/>
		<path d="M75.2,147c0,2.6,0,6,0,9.4c0,0.7-0.3,1.5-0.6,2.2c-0.2,0.5-0.7,0.9-1.3,0.9c-0.7-0.1-0.9-0.6-1-1.2
			c-0.1-0.2-0.1-0.5-0.1-0.7c0-5.7-0.1-11.4-0.1-17.1c0-0.7,0-1.5,0-2.2c0-0.4,0.1-0.8,0.2-1.2c0.3-0.7,0.9-0.9,1.9-0.8
			c0.9,0.1,0.6,0.7,0.6,1.2C75,140.3,75.1,143.2,75.2,147z"/>
		<path d="M116.4,173.3c0.3-2.1,1-2.7,3.1-2.6c0.9,0,1.9,0.1,2.8,0.3c1,0.1,1.5,0.6,1.4,1.2c-0.1,0.9-0.8,1-1.5,1.1
			c-0.7,0-1.4,0-2.1,0c-0.4,0-1-0.1-0.9,0.5c0.1,0.4,0.4,0.8,0.7,1.1c0.1,0.1,0.5,0,0.7,0.1c0.4,0.2,0.9,0.5,0.9,0.8
			c0.1,0.3-0.2,0.8-0.5,1.1c-0.2,0.2-0.6,0.3-0.9,0.3c-1.3,0.3-1.4,0.4-1.5,1.8c0,0.6-0.1,1.2-0.1,1.8c0,1,0.3,1.3,1.3,1.3
			c0.8,0,1.4,0.2,2,0.8c0.7,0.7,0.6,1.3-0.2,1.8c-1.1,0.6-3.8,0.5-4.8-0.3c-0.4-0.3-0.6-0.9-0.7-1.5c-0.1-0.4-0.1-0.9-0.2-1.3
			C116,180.7,116.1,175.2,116.4,173.3z"/>
		<path d="M136.7,182.2c-0.2,2.8-1.5,4.1-4.2,4.1c-0.4,0-0.8,0-1.2,0c-1.6-0.1-2.6-1.4-2.2-3c0.1-0.7,0.8-0.9,1.7-0.6
			c0.4,0.2,0.8,0.5,1.2,0.5c1.6,0,2.3-1.5,1.3-2.9c-0.9-1.3-1.8-2.5-2.7-3.8c-1.1-1.5-1.2-3.1-0.5-4.7c0.5-1.3,1.8-2,3-1.5
			c1,0.4,1.2,0.9,0.6,1.7c-0.1,0.2-0.3,0.3-0.4,0.5c-1,0.9-1,1.5-0.2,2.6c0.9,1.3,1.8,2.5,2.6,3.8
			C136,179.9,136.3,181.1,136.7,182.2z"/>
		<path d="M143.2,179.4c0-1.5,0-2.9,0-4.4c0-0.8-0.1-1.4-1.2-1.4c-1-0.1-1.6-0.7-1.5-1.4c0.1-0.7,1-1.7,1.7-1.6
			c1.7,0,3.3,0.1,4.9,0.3c0.4,0,1.2,0.5,1.2,0.8c0.1,0.6-0.1,1.5-0.5,1.7c-1.4,0.9-1.6,2.2-1.6,3.7c0,1.8,0.1,3.6,0,5.4
			c0,0.7-0.2,1.4-0.4,2.1c-0.2,0.8-0.8,1.1-1.6,0.9c-0.8-0.2-1-0.8-1-1.6C143.2,182.3,143.2,180.9,143.2,179.4
			C143.2,179.4,143.2,179.4,143.2,179.4z"/>
		<path d="M203.2,179.3c0-0.9,0-1.7,0-2.6c0-0.7,0-1.3-0.8-1.7c-0.6-0.3-0.6-1-0.4-1.6c0.3-0.8,0.8-1.4,1.7-1.7
			c1.3-0.5,2.3,0.1,2.3,1.5c0.1,1.1,0,2.3,0,3.4c0,1.6-0.1,3.2-0.2,4.8c0,0.2,0,0.5,0,0.7c0,1.2-0.5,2-1.2,2c-0.8,0-1.5-0.8-1.5-2
			C203.2,181.2,203.2,180.2,203.2,179.3C203.2,179.3,203.2,179.3,203.2,179.3z"/>
		<path d="M156.1,181.1c0,0.7-0.5,1.3-1.2,1.3c-0.8,0-1.5-0.7-1.5-1.5c0-0.7,0.5-1.2,1.2-1.3C155.4,179.6,156.1,180.3,156.1,181.1z"
			/>
	</g>
</g>
</svg>
